 <svg viewBox="0 0 300 120" xmlns="http://www.w3.org/2000/svg">
   <rect width="300" height="120" fill="#f6f8fa"></rect>
   <g>
     <line x1="40" y1="30" x2="40" y2="70" stroke="black" stroke-width="3"></line>
     <line x1="40" y1="50" x2="50" y2="50" stroke="black"></line>
   </g>
   <g></g>
   <g>
     <line x1="90" y1="40" x2="90" y2="60" stroke="black" stroke-width="1"></line>
     <line x1="110" y1="40" x2="110" y2="60" stroke="black" stroke-width="1"></line>
     <text x="100" y="35" text-anchor="middle" lengthAdjust="" textLength="" font-family="arial" font-size="12" fill="black">con_1</text>
     <text x="100" y="55" text-anchor="middle" lengthAdjust="" textLength="" font-family="arial" fill="black"></text>
   </g>
   <g>
     <polyline points="90,50 50,50 " stroke="black" stroke-width="1" fill="transparent"></polyline>
   </g>
   <g>
     <line x1="160" y1="40" x2="160" y2="60" stroke="green" stroke-width="5"></line>
     <line x1="180" y1="40" x2="180" y2="60" stroke="green" stroke-width="5"></line>
     <text x="170" y="35" text-anchor="middle" lengthAdjust="" textLength="" font-family="arial" font-size="12" font-weight="bold" fill="green">con_2</text>
     <text x="170" y="55" text-anchor="middle" lengthAdjust="" textLength="" font-family="arial" font-weight="bold" fill="green">/</text>
   </g>
   <g>
     <polyline points="160,50 110,50 " stroke="green" stroke-width="5" fill="transparent"></polyline>
   </g>
   <g>
     <text x="230" y="35" text-anchor="middle" lengthAdjust="" textLength="" font-family="arial" font-size="12" fill="black">coil_1</text>
     <text x="230" y="55" text-anchor="middle" lengthAdjust="" textLength="" font-family="arial" fill="black"></text>
     <path d="M 225 40 Q 215 50 225 60" stroke="black" stroke-width="1" fill="transparent"></path>
     <path d="M 235 40 Q 245 50 235 60" stroke="black" stroke-width="1" fill="transparent"></path>
   </g>
   <g>
     <polyline points="220,50 180,50 " stroke="green" stroke-width="5" fill="transparent"></polyline>
   </g>
   <g>
     <line x1="280" y1="30" x2="280" y2="70" stroke="black" stroke-width="3"></line>
     <line x1="280" y1="50" x2="270" y2="50" stroke="black"></line>
   </g>
   <g>
     <polyline points="280,50 240,50 " stroke="black" stroke-width="1" fill="transparent"></polyline>
   </g>
 </svg>